<?xml version="1.0" standalone="no"?>
<!DOCTYPE svg PUBLIC "-//W3C//DTD SVG 20010904//EN"
 "http://www.w3.org/TR/2001/REC-SVG-20010904/DTD/svg10.dtd">
<svg version="1.0" xmlns="http://www.w3.org/2000/svg"
 width="700.000000pt" height="700.000000pt" viewBox="0 0 700.000000 700.000000"
 preserveAspectRatio="xMidYMid meet">
<metadata>
Created by potrace 1.14, written by Peter Selinger 2001-2017
</metadata>
<g transform="translate(0.000000,700.000000) scale(0.100000,-0.100000)"
fill="#000000" stroke="none">
<path d="M100 6977 c-30 -16 -51 -37 -67 -67 l-23 -43 0 -3041 0 -3042 23 -44
c12 -24 33 -52 47 -62 29 -20 2276 -678 2317 -678 42 0 106 36 133 77 l25 37
3 1733 2 1733 28 14 c39 20 64 48 461 529 195 235 359 427 365 427 6 0 190 33
409 73 218 40 397 69 397 65 0 -5 -123 -332 -274 -726 -173 -455 -290 -777
-320 -882 -26 -91 -106 -367 -177 -614 l-130 -449 -215 -407 -214 -407 2 -394
3 -394 48 -3 c82 -5 152 22 211 81 44 45 95 137 373 667 177 338 327 626 333
640 5 14 89 295 185 624 96 330 176 600 177 602 2 1 20 -5 40 -13 35 -14 64
-56 344 -496 l306 -480 -223 -626 c-243 -683 -249 -706 -215 -809 47 -141 209
-222 358 -178 65 18 139 79 169 138 30 60 500 1384 515 1452 16 74 5 140 -35
210 -16 28 -119 192 -229 364 l-200 313 70 182 c38 100 80 209 93 242 12 33
27 60 31 59 5 -1 93 -23 197 -49 l187 -48 0 -169 0 -168 -143 0 c-103 0 -148
-4 -161 -13 -17 -12 -4 -35 166 -303 102 -159 194 -307 206 -329 66 -131 69
-281 9 -454 -21 -57 -37 -108 -37 -113 0 -5 275 -7 619 -6 l619 3 27 25 c55
50 55 49 55 586 0 485 0 497 -21 534 -35 63 -58 70 -218 70 l-141 0 0 173 c0
153 -2 176 -20 204 -26 43 -54 57 -130 63 l-65 5 -6 50 c-10 81 -60 154 -128
190 -15 7 -207 60 -427 116 -219 56 -402 105 -406 108 -4 4 51 159 122 346 72
187 134 364 140 395 25 141 -50 303 -174 375 -60 34 -657 263 -735 281 -116
28 -206 16 -921 -115 -485 -89 -677 -128 -710 -145 -37 -18 -94 -81 -315 -348
l-270 -325 -5 956 c-6 1057 -1 992 -69 1040 -17 12 -259 88 -578 181 -301 88
-552 162 -558 164 -5 3 635 5 1423 5 l1432 1 0 -608 0 -608 163 20 162 21 0
680 c0 374 -3 692 -7 707 -11 38 -57 88 -95 104 -27 12 -386 14 -2161 14
l-2129 0 -43 -23z m1919 -3227 c18 -12 42 -41 52 -64 17 -38 19 -75 19 -536 0
-304 -4 -509 -10 -532 -13 -46 -77 -105 -125 -114 -71 -13 -149 26 -179 90
-14 30 -16 94 -16 554 l0 519 23 34 c39 58 83 81 148 77 37 -3 66 -12 88 -28z
m4319 -712 l-3 -83 -215 0 -215 0 -3 69 c-2 38 -1 75 2 83 4 10 49 13 221 13
l216 0 -3 -82z"/>
<path d="M5361 6324 c-137 -37 -286 -155 -346 -275 -35 -68 -65 -189 -65 -258
1 -288 231 -530 520 -548 239 -15 453 122 547 349 31 76 42 229 23 321 -39
189 -206 362 -395 412 -73 19 -212 18 -284 -1z"/>
<path d="M4262 2357 l-52 -182 0 -597 0 -598 -262 -2 -261 -3 -83 -155 c-46
-85 -83 -158 -83 -162 -1 -5 159 -8 354 -8 l355 0 0 63 c0 83 6 101 169 559
l141 398 0 263 0 263 -101 160 c-55 87 -106 164 -112 171 -9 9 -24 -31 -65
-170z"/>
</g>
</svg>
